HIERARCHY
ROOT Hips
{
	OFFSET 0.00000 0.00000 0.00000
	CHANNELS 6 Xposition Yposition Zposition Zrotation Yrotation Xrotation 
	JOINT LHipJoint
	{
		OFFSET 0 0 0
		CHANNELS 3 Zrotation Yrotation Xrotation
		JOINT LeftUpLeg
		{
			OFFSET 1.37959 -1.78713 0.86582
			CHANNELS 3 Zrotation Yrotation Xrotation
			JOINT LeftLeg
			{
				OFFSET 2.54611 -6.99539 0.00000
				CHANNELS 3 Zrotation Yrotation Xrotation
				JOINT LeftFoot
				{
					OFFSET 2.59951 -7.14211 0.00000
					CHANNELS 3 Zrotation Yrotation Xrotation
					JOINT LeftToeBase
					{
						OFFSET 0.18493 -0.50810 1.96120
						CHANNELS 3 Zrotation Yrotation Xrotation
						End Site
						{
							OFFSET 0.00000 -0.00000 1.02054
						}
					}
				}
			}
		}
	}
	JOINT RHipJoint
	{
		OFFSET 0 0 0
		CHANNELS 3 Zrotation Yrotation Xrotation
		JOINT RightUpLeg
		{
			OFFSET -1.33564 -1.78713 0.86582
			CHANNELS 3 Zrotation Yrotation Xrotation
			JOINT RightLeg
			{
				OFFSET -2.52705 -6.94302 0.00000
				CHANNELS 3 Zrotation Yrotation Xrotation
				JOINT RightFoot
				{
					OFFSET -2.55964 -7.03257 0.00000
					CHANNELS 3 Zrotation Yrotation Xrotation
					JOINT RightToeBase
					{
						OFFSET -0.25804 -0.70896 2.12109
						CHANNELS 3 Zrotation Yrotation Xrotation
						End Site
						{
							OFFSET -0.00000 -0.00000 1.11821
						}
					}
				}
			}
		}
	}
	JOINT LowerBack
	{
		OFFSET 0 0 0
		CHANNELS 3 Zrotation Yrotation Xrotation
		JOINT Spine
		{
			OFFSET -0.02031 2.24248 -0.18900
			CHANNELS 3 Zrotation Yrotation Xrotation
			JOINT Spine1
			{
				OFFSET 0.08342 2.24689 -0.03799
				CHANNELS 3 Zrotation Yrotation Xrotation
				JOINT Neck
				{
					OFFSET 0 0 0
					CHANNELS 3 Zrotation Yrotation Xrotation
					JOINT Neck1
					{
						OFFSET -0.11607 1.55844 0.24628
						CHANNELS 3 Zrotation Yrotation Xrotation
						JOINT Head
						{
							OFFSET 0.06877 1.60174 -0.17013
							CHANNELS 3 Zrotation Yrotation Xrotation
							End Site
							{
								OFFSET 0.03358 1.61266 -0.08543
							}
						}
					}
				}
				JOINT LeftShoulder
				{
					OFFSET 0 0 0
					CHANNELS 3 Zrotation Yrotation Xrotation
					JOINT LeftArm
					{
						OFFSET 3.47537 0.55866 -0.72348
						CHANNELS 3 Zrotation Yrotation Xrotation
						JOINT LeftForeArm
						{
							OFFSET 5.38154 -0.00000 0.00000
							CHANNELS 3 Zrotation Yrotation Xrotation
							JOINT LeftHand
							{
								OFFSET 3.33312 -0.00000 0.00000
								CHANNELS 3 Zrotation Yrotation Xrotation
								JOINT LeftFingerBase
								{
									OFFSET 0 0 0
									CHANNELS 3 Zrotation Yrotation Xrotation
									JOINT LeftHandIndex1
									{
										OFFSET 0.71079 -0.00000 0.00000
										CHANNELS 3 Zrotation Yrotation Xrotation
										End Site
										{
											OFFSET 0.57306 -0.00000 0.00000
										}
									}
								}
								JOINT LThumb
								{
									OFFSET 0 0 0
									CHANNELS 3 Zrotation Yrotation Xrotation
									End Site
									{
										OFFSET 0.58181 -0.00000 0.58181
									}
								}
							}
						}
					}
				}
				JOINT RightShoulder
				{
					OFFSET 0 0 0
					CHANNELS 3 Zrotation Yrotation Xrotation
					JOINT RightArm
					{
						OFFSET -3.27844 0.90739 -0.35708
						CHANNELS 3 Zrotation Yrotation Xrotation
						JOINT RightForeArm
						{
							OFFSET -5.16954 -0.00000 0.00000
							CHANNELS 3 Zrotation Yrotation Xrotation
							JOINT RightHand
							{
								OFFSET -3.38287 -0.00000 0.00000
								CHANNELS 3 Zrotation Yrotation Xrotation
								JOINT RightFingerBase
								{
									OFFSET 0 0 0
									CHANNELS 3 Zrotation Yrotation Xrotation
									JOINT RightHandIndex1
									{
										OFFSET -0.81797 -0.00000 0.00000
										CHANNELS 3 Zrotation Yrotation Xrotation
										End Site
										{
											OFFSET -0.65947 -0.00000 0.00000
										}
									}
								}
								JOINT RThumb
								{
									OFFSET 0 0 0
									CHANNELS 3 Zrotation Yrotation Xrotation
									End Site
									{
										OFFSET -0.66953 -0.00000 0.66953
									}
								}
							}
						}
					}
				}
			}
		}
	}
}
MOTION
Frames: 15
Frame Time: .0083333
12.0834 16.1386 8.1698 -140.6170 -60.5220 146.8980 0.0000 0.0000 0.0000 -6.8664 1.9522 -44.0807 17.4505 19.8434 82.5270 0.5421 -8.8872 -13.6232 0.0751 1.7678 4.8645 0.0000 0.0000 0.0000 21.7247 -2.7848 -28.0019 -6.0767 -14.5022 45.2886 -0.6252 -0.5396 -15.1436 -1.1231 6.7317 -18.9230 3.1728 -0.3600 20.1020 5.7160 -0.3296 6.6125 4.4268 -0.5330 -4.0383 -19.1960 -15.1557 0.6982 16.2424 -22.2622 11.1143 6.1699 -11.0423 7.2832 0.0000 0.0000 0.0000 -81.9231 -2.9717 37.9517 41.0382 -48.6731 -19.2153 -0.0000 -0.0000 3.1591 9.4427 40.2240 6.1302 -7.1250 0.0000 -0.0000 -35.9293 67.2942 -20.3157 0.0000 0.0000 0.0000 38.7327 29.3029 -59.0492 -12.9169 21.1654 -2.4232 0.0000 -0.0000 -35.0386 15.3552 14.1799 3.8484 7.1250 -0.0000 -0.0000 28.0575 -16.0556 22.0607
12.0576 16.1292 8.2697 -143.6520 -60.4447 149.1670 0.0000 0.0000 0.0000 -7.4771 0.9353 -43.3376 17.4783 19.8469 82.6091 0.6706 -8.7057 -14.9174 0.1682 2.6419 7.2834 0.0000 0.0000 0.0000 19.8958 -3.0764 -27.6870 -6.0196 -14.4473 45.0602 -0.5668 0.5242 -14.0523 -1.4583 7.6325 -21.6033 1.7382 -0.3248 20.0344 5.4558 -0.6046 6.9303 5.0194 -0.6817 -3.6438 -19.1884 -14.9770 -0.0763 15.7465 -21.8606 11.5842 6.0106 -10.8234 7.4299 -0.0000 -0.0000 0.0000 -82.4784 -4.7253 39.8903 42.0760 -49.2529 -19.9981 -0.0000 -0.0000 2.6198 9.9727 40.7702 6.5503 -7.1250 0.0000 -0.0000 -36.2517 67.8795 -20.9852 -0.0000 -0.0000 0.0000 39.1714 30.8650 -57.6767 -13.2355 21.6313 -2.5395 0.0000 -0.0000 -35.9198 12.2155 14.9097 3.1882 7.1250 -0.0000 -0.0000 26.0994 -15.5303 20.4313
12.0569 16.0508 8.4521 -144.3810 -58.4710 149.9890 0.0000 0.0000 0.0000 -6.0244 0.3094 -43.9934 17.5559 19.8562 82.8373 0.7419 -8.0831 -15.5259 0.2289 3.0793 8.4995 0.0000 0.0000 0.0000 20.0442 -2.1743 -28.2095 -5.9698 -14.3990 44.8602 -0.4763 1.3207 -12.6460 -1.7952 8.4258 -24.0150 2.9617 -0.2823 20.2616 5.4301 -0.3354 6.9055 4.2364 -0.5537 -3.8066 -19.2439 -14.7866 -0.6230 15.5050 -21.5246 12.0098 5.9501 -10.6454 7.5763 0.0000 -0.0000 0.0000 -82.9731 -6.4030 42.0113 42.9078 -49.7013 -20.6304 -0.0000 -0.0000 2.0723 10.4503 40.2992 6.8029 -7.1250 0.0000 -0.0000 -34.9931 67.6595 -20.0162 0.0000 -0.0000 0.0000 39.7278 31.9875 -55.2305 -13.5407 22.0743 -2.6531 0.0000 -0.0000 -37.6277 9.6116 15.3555 2.5677 7.1250 -0.0000 -0.0000 24.4726 -15.1872 19.0597
12.0451 16.0232 8.5881 -145.2520 -56.7966 150.7780 0.0000 0.0000 0.0000 -4.6954 -0.0496 -44.1276 17.5130 19.8511 82.7110 0.8008 -7.1238 -16.0025 0.1576 2.5578 7.0498 0.0000 0.0000 0.0000 20.1633 -1.2648 -28.1114 -5.8471 -14.2785 44.3649 -0.4118 1.7664 -11.6373 -1.7884 8.4107 -23.9687 3.3057 -0.1442 20.5094 5.4239 -0.0809 6.8149 3.9833 -0.4326 -4.0431 -19.0225 -14.5153 -0.8591 15.1991 -21.1247 12.3380 5.8715 -10.4509 7.5882 0.0000 0.0000 0.0000 -83.4345 -7.8917 44.1806 43.5021 -50.0132 -21.0847 -0.0000 -0.0000 1.7598 10.8627 39.3058 6.9307 -7.1250 0.0000 -0.0000 -33.0380 66.9934 -18.3087 0.0000 0.0000 0.0000 40.2134 33.1471 -53.9580 -13.5574 22.0984 -2.6593 0.0000 -0.0000 -37.9491 9.3177 15.9832 2.5868 7.1250 -0.0000 -0.0000 24.2075 -14.6126 19.1404
11.9972 16.0503 8.6883 -148.2720 -56.5707 152.4320 0.0000 0.0000 0.0000 -5.5766 -0.9776 -42.3374 17.2436 19.8169 81.9172 0.8896 -6.4414 -16.8239 0.1400 2.4112 6.6436 0.0000 0.0000 0.0000 18.3839 -1.7716 -26.8934 -5.6638 -14.0945 43.6172 -0.3582 2.4851 -10.7198 -1.7353 8.2915 -23.6029 1.8125 -0.0045 20.9987 4.9335 -0.2143 7.0741 4.3454 -0.5055 -4.0172 -18.5028 -14.2721 -1.1799 14.8002 -20.7417 12.6370 5.7131 -10.2532 7.5669 0.0000 0.0000 0.0000 -83.7065 -9.5588 46.6399 44.2814 -50.4115 -21.6835 -0.0000 -0.0000 1.4180 11.1535 39.9605 7.2169 -7.1250 0.0000 -0.0000 -33.7180 67.6062 -19.1803 0.0000 0.0000 0.0000 40.6298 34.6054 -54.1839 -13.4426 21.9323 -2.6163 0.0000 -0.0000 -36.8749 10.3117 16.3725 2.9359 7.1250 -0.0000 -0.0000 24.7495 -14.2364 19.8911
11.9981 16.0343 8.7945 -147.3380 -54.3730 151.4490 0.0000 0.0000 0.0000 -2.7923 -1.2398 -42.0786 17.0547 19.7907 81.3597 0.8781 -7.1332 -16.7435 0.1705 2.6603 7.3345 0.0000 0.0000 0.0000 19.9015 -0.2868 -26.0424 -5.4368 -13.8594 42.6770 -0.3026 2.0501 -9.8815 -1.6659 8.1324 -23.1170 3.0358 0.1560 21.3169 5.1610 0.1942 7.2108 3.8001 -0.3307 -4.0431 -18.0807 -14.1291 -1.8569 14.4122 -20.4770 13.2123 5.5189 -10.0948 7.7336 0.0000 -0.0000 0.0000 -83.9392 -11.5874 49.2842 44.9478 -50.7429 -22.1984 -0.0000 -0.0000 1.0521 11.1071 40.5421 7.2722 -7.1250 0.0000 -0.0000 -34.6878 68.0524 -20.1254 0.0000 -0.0000 0.0000 41.0440 35.9729 -54.0538 -13.5173 22.0405 -2.6443 0.0000 -0.0000 -36.6219 11.6519 15.4924 3.1528 7.1250 -0.0000 -0.0000 25.6746 -15.0135 20.3373
11.9858 16.0102 8.9312 -147.7100 -52.4111 151.8180 0.0000 0.0000 0.0000 -1.0997 -1.8745 -41.8221 16.7578 19.7461 80.4817 0.8398 -7.6287 -16.4184 0.2167 2.9970 8.2705 0.0000 0.0000 0.0000 20.3963 1.3018 -25.5336 -5.2060 -13.6121 41.7051 -0.2475 1.8851 -8.9301 -1.6136 8.0099 -22.7443 3.6498 0.2729 21.4805 5.2160 0.4398 7.2669 3.4527 -0.2253 -4.0656 -17.8200 -13.8866 -2.6030 13.8126 -20.0201 13.8653 5.3042 -9.8600 7.9029 0.0000 0.0000 0.0000 -84.5846 -13.4524 51.5814 45.5670 -51.0433 -22.6788 -0.0000 -0.0000 0.8524 11.2420 40.3332 7.3307 -7.1250 0.0000 -0.0000 -34.2094 67.9294 -19.7299 0.0000 0.0000 0.0000 41.1197 37.6353 -53.7805 -13.4633 21.9623 -2.6240 0.0000 -0.0000 -36.5189 11.8384 15.3223 3.1703 7.1250 -0.0000 -0.0000 25.8112 -15.1640 20.3786
11.9710 15.9700 9.0878 -149.3830 -50.3862 153.4420 0.0000 0.0000 0.0000 -0.4115 -2.3236 -41.6246 16.4268 19.6911 79.5009 0.8508 -8.1596 -16.5758 0.1278 2.3045 6.3479 0.0000 0.0000 0.0000 20.0503 2.9812 -25.4218 -4.9814 -13.3628 40.7421 -0.1936 1.9399 -7.8622 -1.8177 8.4756 -24.1684 3.2414 0.4719 21.7021 5.2112 0.6270 7.1635 3.6409 -0.1408 -4.3058 -17.8518 -13.4461 -3.1983 13.1595 -19.2596 14.4107 5.1740 -9.5107 7.9911 -0.0000 -0.0000 0.0000 -85.5886 -14.9815 53.3189 46.2021 -51.3440 -23.1737 -0.0000 -0.0000 0.8664 11.4021 40.4313 7.4516 -7.1250 0.0000 -0.0000 -34.1960 68.0565 -19.8172 -0.0000 -0.0000 0.0000 41.0172 39.8008 -53.4202 -13.1850 21.5577 -2.5208 0.0000 -0.0000 -35.8858 11.6361 16.4158 3.3306 7.1250 -0.0000 -0.0000 25.5271 -14.1652 20.7153
11.9326 15.9585 9.2232 -149.8150 -50.0778 153.6870 0.0000 0.0000 0.0000 0.0525 -4.5123 -40.7010 15.9748 19.6070 78.1565 0.8620 -9.6367 -16.8897 0.0238 0.9956 2.7368 0.0000 0.0000 0.0000 19.5945 3.0666 -24.9102 -4.7531 -13.1002 39.7448 -0.1666 1.8167 -7.2897 -1.9301 8.7188 -24.9197 2.9930 0.0097 21.9639 5.3078 -0.0024 7.0418 4.0567 -0.4532 -4.5460 -18.1236 -12.9846 -3.6505 12.7525 -18.5106 14.8903 5.1653 -9.1777 8.0900 -0.0000 -0.0000 0.0000 -86.4977 -16.5193 55.1594 46.5578 -51.5092 -23.4518 -0.0000 -0.0000 0.7859 12.3027 40.2952 8.0281 -7.1250 0.0000 -0.0000 -33.0128 68.2274 -19.1975 -0.0000 -0.0000 0.0000 41.1392 41.7647 -52.4274 -13.0158 21.3104 -2.4590 0.0000 -0.0000 -35.5542 12.1279 17.1038 3.6163 7.1250 -0.0000 -0.0000 25.7142 -13.5185 21.3063
11.8936 15.9650 9.3551 -150.1210 -49.3809 153.6190 0.0000 0.0000 0.0000 0.7451 -6.3875 -39.4441 15.5229 19.5125 76.8070 0.7744 -11.9078 -16.6378 0.0113 0.6873 1.8888 0.0000 0.0000 0.0000 19.4006 3.6131 -23.9251 -4.5183 -12.8199 38.6978 -0.1386 1.6235 -6.6526 -1.7839 8.4007 -23.9380 3.1249 -0.1824 22.4312 5.3358 -0.2238 7.0510 4.0840 -0.5746 -4.7606 -18.0213 -12.6862 -4.1382 12.3073 -17.9749 15.2088 5.0560 -8.9279 8.1386 -0.0000 0.0000 0.0000 -87.2443 -18.4596 57.7839 46.6351 -51.5448 -23.5123 -0.0000 -0.0000 0.8646 13.0751 39.9859 8.4883 -7.1250 0.0000 -0.0000 -31.6860 68.2174 -18.3587 -0.0000 0.0000 0.0000 41.0187 43.5013 -52.8391 -12.8315 21.0399 -2.3925 0.0000 -0.0000 -34.5071 11.5095 16.6400 3.3371 7.1250 -0.0000 -0.0000 25.4201 -13.9625 20.7304
11.8549 15.9571 9.5212 -150.6820 -48.0269 154.3680 0.0000 0.0000 0.0000 1.5427 -7.9490 -39.1989 15.2006 19.4385 75.8401 0.5912 -13.9857 -15.7535 0.0208 0.9308 2.5585 0.0000 0.0000 0.0000 19.2468 4.7791 -23.6706 -4.2584 -12.4965 37.5119 -0.0982 1.4271 -5.5917 -1.8822 8.6163 -24.6024 3.6055 -0.2255 22.4045 5.2579 -0.1913 7.0092 3.7155 -0.5617 -4.7914 -17.7834 -12.4201 -4.8051 11.8454 -17.4594 15.5428 4.9067 -8.6750 8.2166 -0.0000 0.0000 0.0000 -88.1571 -20.6473 60.4919 46.4378 -51.4537 -23.3579 -0.0000 -0.0000 1.1275 9.8484 39.0384 6.2400 -7.1250 0.0000 -0.0000 -33.7212 66.4777 -18.3332 -0.0000 0.0000 0.0000 40.9404 45.3460 -53.6538 -12.7018 20.8487 -2.3461 0.0000 -0.0000 -33.2422 8.6846 15.1575 2.2871 7.1250 -0.0000 -0.0000 23.9366 -15.3840 18.4382
11.8144 15.9294 9.6892 -151.3790 -46.6880 155.1770 0.0000 0.0000 0.0000 1.9962 -9.1161 -38.8464 15.0217 19.3951 75.3020 0.5059 -15.1809 -15.5298 0.0300 -1.1179 -3.0732 0.0000 0.0000 0.0000 18.9566 5.9352 -23.3815 -3.9933 -12.1515 36.2701 -0.0655 1.2445 -4.5593 -2.1218 9.1152 -26.1564 3.8016 -0.3464 22.4679 5.2331 -0.3198 6.9847 3.6131 -0.6316 -4.8440 -17.7871 -12.0842 -5.5680 11.5082 -16.8418 15.9705 4.8432 -8.3787 8.3654 0.0000 -0.0000 0.0000 -89.2286 -22.7456 62.6401 46.0919 -51.2923 -23.0877 -0.0000 -0.0000 1.2211 7.2568 36.1064 4.2913 -7.1250 0.0000 -0.0000 -32.5949 63.3663 -15.3406 0.0000 -0.0000 0.0000 41.2923 47.1031 -52.5183 -12.7820 20.9670 -2.3747 0.0000 -0.0000 -33.6897 9.7814 14.9754 2.5507 7.1250 -0.0000 -0.0000 24.6301 -15.5345 19.0036
11.7705 15.9115 9.8580 -151.9050 -45.5978 155.6880 0.0000 0.0000 0.0000 2.2918 -10.1862 -38.5337 14.9444 19.3758 75.0691 0.3462 -16.3762 -14.7464 0.1520 -2.5123 -6.9237 0.0000 0.0000 0.0000 18.6237 6.9658 -22.8624 -3.7405 -11.8068 35.0520 -0.0454 1.0491 -3.7940 -2.0370 8.9427 -25.6164 4.1619 -0.5662 22.7486 5.0381 -0.5232 6.9230 3.2594 -0.7332 -5.0476 -17.4332 -11.7469 -6.2036 11.2296 -16.3057 16.4013 4.7446 -8.1081 8.4810 0.0000 -0.0000 0.0000 -89.9498 -24.8785 65.0651 45.7565 -51.1337 -22.8263 -0.0000 -0.0000 0.7076 12.9005 32.7195 7.0574 -7.1250 0.0000 -0.0000 -23.1433 61.8791 -9.7892 0.0000 -0.0000 0.0000 41.9957 48.6363 -51.4284 -12.8733 21.1013 -2.4075 0.0000 -0.0000 -34.2258 9.6732 14.4419 2.4342 7.1250 -0.0000 -0.0000 24.6427 -16.0282 18.7200
11.7429 15.9198 9.9978 -153.6560 -43.7482 157.2570 0.0000 0.0000 0.0000 2.0076 -9.9264 -38.0933 14.8767 19.3587 74.8651 0.1140 -17.8658 -13.5961 0.1304 -2.3280 -6.4131 0.0000 0.0000 0.0000 17.8899 9.1039 -22.3452 -3.5028 -11.4676 33.8737 -0.0266 0.6611 -2.9192 -1.9102 8.6764 -24.7883 3.3335 -0.1720 22.8205 4.6758 -0.1883 6.8739 3.2501 -0.5588 -5.1561 -16.9340 -11.4258 -6.8255 11.0750 -15.8418 16.8124 4.6565 -7.8565 8.6004 0.0000 -0.0000 0.0000 -90.6531 -27.1290 67.7554 45.3103 -50.9196 -22.4794 -0.0000 0.0000 -0.1089 11.6583 38.8917 7.3813 -7.1250 0.0000 -0.0000 -31.5851 66.8935 -17.3648 0.0000 -0.0000 0.0000 42.7727 50.1917 -51.2751 -12.8784 21.1087 -2.4093 0.0000 -0.0000 -33.8234 16.1128 13.5000 3.8580 7.1250 -0.0000 -0.0000 28.6180 -16.6291 22.2262
11.6771 15.9112 10.1904 -155.6130 -43.2777 159.0050 0.0000 0.0000 0.0000 0.3911 -11.2898 -37.9632 14.8428 19.3500 74.7627 0.0133 -17.7970 -12.6364 0.1158 -2.1943 -6.0428 0.0000 0.0000 0.0000 16.0009 9.6244 -22.4753 -3.2596 -11.1039 32.6311 -0.0101 0.6093 -1.7866 -1.8335 8.5103 -24.2751 2.5835 -0.3676 22.9134 4.2293 -0.5748 6.6806 3.3017 -0.7213 -5.4080 -16.7470 -11.1038 -7.4187 10.8295 -15.2892 17.0278 4.5996 -7.5847 8.6590 0.0000 0.0000 0.0000 -92.0314 -29.3489 70.2178 44.5686 -50.5554 -21.9051 -0.0000 0.0000 -0.7084 11.5927 40.5764 7.6003 -7.1250 0.0000 -0.0000 -34.2271 68.2301 -19.9676 0.0000 0.0000 0.0000 44.3170 50.5262 -44.9474 -13.6393 22.2168 -2.6902 0.0000 -0.0000 -39.0358 10.1547 15.5165 2.7433 7.1250 -0.0000 -0.0000 24.7771 -15.0285 19.4469
